<?xml version="1.0" encoding="UTF-8"?>
<svg version="1.1" xmlns="http://www.w3.org/2000/svg" width="1024" height="1024">
<path d="M0 0 C3.28313793 0.00915606 6.56556214 0.00231913 9.84863281 -0.02050781 C94.38854887 -0.60430834 179.20181844 22.66989727 241.00561523 82.88354492 C245.51487246 87.47122401 249.49925465 92.32032788 253.38061523 97.44604492 C253.88753906 98.1142627 254.39446289 98.78248047 254.91674805 99.47094727 C266.51562348 114.81885263 277.22225654 130.55946801 286.33959961 147.51489258 C287.01274403 148.76361968 287.69326167 150.00841236 288.38256836 151.24829102 C311.33910988 192.65449836 327.43750803 252.87192108 314.53491211 299.56933594 C312.69830885 306.42157819 311.80283987 312.7849576 311.81811523 319.88354492 C311.81618164 320.70540283 311.81424805 321.52726074 311.81225586 322.37402344 C312.30262827 340.48622568 324.4567473 355.36865004 334.19311523 369.82104492 C335.12386343 371.21139577 336.05420299 372.60202027 336.98413086 373.99291992 C344.0505535 384.54584311 351.24838077 395.00704608 358.46044922 405.46069336 C378.95403202 435.26461301 378.95403202 435.26461301 376.38061523 450.44604492 C374.00771415 457.56474819 370.30022516 464.8704844 363.38061523 468.44604492 C357.69235099 470.18093529 352.48461844 470.72866931 346.56811523 470.88354492 C338.27976954 471.2333252 330.59638514 471.95099743 323.31811523 476.25854492 C319.25292501 480.84827582 319.11958207 485.53334014 319.38061523 491.44604492 C319.91302559 494.17142154 320.64992361 496.83058022 321.38061523 499.50854492 C323.51919372 507.97471787 325.47317807 517.18831629 322.13842773 525.56713867 C320.30745854 528.56585932 318.47427386 530.53683602 315.81811523 532.82104492 C315.03307617 533.5094043 314.24803711 534.19776367 313.43920898 534.90698242 C311.38061523 536.44604492 311.38061523 536.44604492 309.38061523 536.44604492 C309.53208008 536.9890625 309.68354492 537.53208008 309.83959961 538.09155273 C316.66053647 562.88828166 316.66053647 562.88828166 313.15795898 571.42651367 C311.23180631 574.69885657 309.07736912 577.15422022 306.44311523 579.88354492 C300.41723224 586.41964866 296.67304611 590.8478893 296.97436523 600.06323242 C297.47546584 604.23585858 298.42312982 608.23343136 299.38061523 612.32104492 C302.64092019 626.46369996 304.43830216 644.23368542 296.75170898 657.19213867 C294.76354514 660.08802984 292.65002861 662.7654216 290.38061523 665.44604492 C289.63682617 666.32647461 288.89303711 667.2069043 288.12670898 668.11401367 C278.42847921 678.67501842 265.22177422 684.60114926 250.9440918 685.71386719 C247.27188419 685.81234683 243.61624352 685.80969544 239.94311523 685.75854492 C238.60205224 685.74985256 237.26098773 685.74139247 235.91992188 685.7331543 C228.66801362 685.66124106 221.51935515 685.29673261 214.31811523 684.44604492 C204.36762455 683.27786386 194.44864044 683.21774647 184.44311523 683.19604492 C183.65242645 683.1910498 182.86173767 683.18605469 182.04708862 683.1809082 C164.64432481 683.09044667 146.32038614 683.59640928 132.37670898 695.44213867 C116.11663029 711.7658576 115.24732308 738.04795454 112.31811523 759.69604492 C109.55934971 779.94776683 109.55934971 779.94776683 107.88452148 789.43041992 C107.66739502 790.67017578 107.45026855 791.90993164 107.2265625 793.18725586 C105.97487456 798.00905403 104.39713183 800.66743647 100.44311523 803.69604492 C95.99616718 806.2371581 92.65675884 806.57133422 87.56404305 806.57747269 C86.36845776 806.58131383 85.17287247 806.58515498 83.94105732 806.58911252 C82.62609709 806.58824604 81.31113686 806.58737956 79.95632935 806.58648682 C78.54647073 806.5890706 77.13661285 806.5920838 75.72675598 806.59549022 C71.84803513 806.60356169 67.96933279 806.60534987 64.09060454 806.60608768 C59.90919355 806.60793795 55.72779216 806.61548507 51.54638672 806.6222229 C42.40188558 806.63580703 33.25738883 806.64183085 24.11287928 806.64623356 C18.40474892 806.64899542 12.69662027 806.65323263 6.98849106 806.65773773 C-8.81128012 806.66992969 -24.61104995 806.68022968 -40.41082573 806.68361282 C-41.42209892 806.68383239 -42.43337211 806.68405196 -43.47528995 806.68427818 C-44.488997 806.68449645 -45.50270406 806.68471473 -46.54712951 806.68493962 C-48.60132527 806.68538309 -50.65552104 806.68582965 -52.7097168 806.6862793 C-53.72867118 806.68650073 -54.74762556 806.68672216 -55.79745735 806.6869503 C-72.31514512 806.69089992 -88.83278882 806.70835926 -105.35045956 806.73163882 C-122.30306296 806.75533885 -139.25564423 806.76781403 -156.20826447 806.76898074 C-165.72895402 806.76989818 -175.24958611 806.77566781 -184.77025986 806.79380035 C-192.87569366 806.80918304 -200.98105226 806.8143326 -209.08649789 806.80606225 C-213.22291996 806.80214945 -217.3591905 806.80311599 -221.49559402 806.8171196 C-225.28180251 806.82982063 -229.06774499 806.82869467 -232.8539529 806.81652889 C-234.87342583 806.81363463 -236.8929032 806.82553628 -238.91234004 806.83795094 C-240.11314083 806.8313611 -241.31394161 806.82477126 -242.55113029 806.81798172 C-244.10283261 806.81887735 -244.10283261 806.81887735 -245.68588245 806.81979108 C-250.23522628 806.24017682 -253.60103727 804.73095151 -256.46240234 801.12060547 C-260.66124392 791.41427301 -256.60054012 780.7398307 -253.23455811 771.36962891 C-252.40530131 769.05948883 -251.601514 766.74174986 -250.8034668 764.4206543 C-249.66546526 761.11337624 -248.51984297 757.80889787 -247.36889648 754.50610352 C-244.48031307 746.18504913 -241.72555471 737.81987944 -238.99438477 729.44604492 C-238.72415497 728.61826538 -238.45392517 727.79048584 -238.17550659 726.93762207 C-234.18048833 714.65992095 -230.45810037 702.32150746 -226.99438477 689.88354492 C-226.78996765 689.15417725 -226.58555054 688.42480957 -226.37493896 687.67333984 C-222.36289262 673.28977481 -219.46804294 658.8729225 -217.73901367 644.03930664 C-217.49438548 641.946051 -217.23919698 639.85427798 -216.98266602 637.76245117 C-209.29069474 573.97260465 -218.07669672 517.71229983 -254.61938477 464.38354492 C-272.30430252 438.52312348 -285.23452394 413.40629868 -294.61938477 383.44604492 C-294.89057129 382.5851123 -295.16175781 381.72417969 -295.44116211 380.8371582 C-317.75930353 308.89628392 -307.03337184 224.08377183 -272.53735352 158.03198242 C-271.90033771 156.8354388 -271.2610506 155.64010134 -270.61938477 154.44604492 C-269.99676758 153.28331055 -269.37415039 152.12057617 -268.73266602 150.92260742 C-261.29499099 137.49556731 -252.51514948 125.16706823 -242.61938477 113.44604492 C-241.22326342 111.69627469 -239.82743759 109.94626863 -238.43188477 108.19604492 C-225.47017385 92.37913196 -210.97259492 79.27881416 -194.67651367 67.0065918 C-192.82473227 65.60182243 -190.98939025 64.17963761 -189.16235352 62.74291992 C-181.25727024 56.53100945 -173.09417364 50.85054643 -164.61938477 45.44604492 C-164.04027344 45.07656738 -163.46116211 44.70708984 -162.86450195 44.32641602 C-112.3440631 12.41801632 -59.24245101 -0.17283133 0 0 Z " fill="#3A505C" transform="translate(500.619384765625,109.553955078125)"/>
<path d="M0 0 C14.51683581 11.4616586 23.27307644 25.36574394 25.8125 43.8125 C27.26851206 62.66904961 21.70151358 78.84306826 9.5 93.1875 C-2.31584249 105.55150014 -17.23331568 113.70510656 -34.43383789 114.16625977 C-48.85190994 114.28276132 -60.27286254 111.34379783 -73.1875 104.8125 C-75.0450016 106.64255083 -76.89847232 108.47642011 -78.75 110.3125 C-79.26369141 110.8178125 -79.77738281 111.323125 -80.30664062 111.84375 C-83.14022818 114.65973763 -85.84309745 117.53653892 -88.44311523 120.5703125 C-91.93925881 124.58319228 -95.61892426 128.35711551 -99.40625 132.09375 C-100.39860657 133.08042664 -100.39860657 133.08042664 -101.41101074 134.08703613 C-104.20328144 136.86316558 -107.00155416 139.63321537 -109.79931641 142.40380859 C-111.85790898 144.4441708 -113.91337903 146.48764331 -115.96875 148.53125 C-116.58874878 149.14295044 -117.20874756 149.75465088 -117.84753418 150.3848877 C-121.59035441 154.10701681 -125.1062281 157.96264566 -128.55651855 161.95666504 C-130.74958516 164.45207643 -133.07258991 166.79273437 -135.4375 169.125 C-136.13020996 169.81203003 -136.13020996 169.81203003 -136.83691406 170.51293945 C-138.76889565 172.42891917 -140.70694784 174.33871165 -142.64453125 176.24902344 C-147.89467443 181.4319478 -153.06508122 186.62941092 -157.84765625 192.25390625 C-158.90814136 193.48753179 -160.03718251 194.66218251 -161.1875 195.8125 C-160.84405342 200.00693274 -159.07406499 203.26054051 -157.125 206.9375 C-154.1875 212.48073529 -154.1875 212.48073529 -154.1875 215.8125 C-135.92465443 216.0929889 -117.66236869 216.30450955 -99.39783382 216.43424606 C-90.91691472 216.49609061 -82.43733478 216.5803783 -73.95727539 216.71777344 C-66.56476321 216.83749074 -59.17322075 216.91482234 -51.77976614 216.94156194 C-47.86536783 216.95719167 -43.95374318 216.99382783 -40.04023552 217.08126068 C-36.35308154 217.16296608 -32.66983057 217.18779858 -28.9818573 217.16979218 C-26.98955851 217.17464863 -24.99768204 217.23911681 -23.00648499 217.30554199 C-19.36063328 217.25525692 -16.6024651 217.10032602 -13.1875 215.8125 C-10.72594736 212.98887091 -9.21075754 210.29751337 -7.65691471 206.89619827 C-5.17181295 201.68098984 -1.22603279 197.87109173 2.8125 193.8125 C3.54984375 193.04035156 4.2871875 192.26820313 5.046875 191.47265625 C16.86150857 179.87607799 32.48376084 174.09673298 48.875 173.5625 C67.8583418 173.82542717 82.84054935 181.43526441 95.9375 194.8125 C107.65066581 208.59269507 112.10348746 226.01141937 110.8125 243.8125 C108.82300195 261.21612713 100.81670334 276.87030653 87.1875 288.0625 C83.28313753 290.73432442 79.0742158 292.89547572 74.875 295.0625 C74.21870605 295.40442383 73.56241211 295.74634766 72.88623047 296.09863281 C60.37641514 302.29944565 44.2456669 303.04459852 30.875 299.25 C10.98513455 291.95704933 -1.8253603 279.47369458 -10.9609375 260.5390625 C-12.1875 257.8125 -12.1875 257.8125 -13.1015625 255.0234375 C-13.94031084 252.6600229 -13.94031084 252.6600229 -15.99850464 252.18615723 C-18.13536526 251.8213993 -20.13116765 251.66164528 -22.29736328 251.62304688 C-23.5261319 251.59791771 -23.5261319 251.59791771 -24.77972412 251.57228088 C-25.67999329 251.55874069 -26.58026245 251.5452005 -27.5078125 251.53125 C-28.4789801 251.51315781 -29.45014771 251.49506561 -30.45074463 251.47642517 C-33.73793014 251.41688028 -37.02518768 251.36454134 -40.3125 251.3125 C-42.64274363 251.27237608 -44.97298445 251.23208823 -47.30322266 251.19165039 C-82.9290715 250.59120484 -118.55900655 250.21722096 -154.1875 249.8125 C-154.36925781 250.70001953 -154.36925781 250.70001953 -154.5546875 251.60546875 C-155.45494643 255.85053585 -156.39206621 259.83689661 -158.1875 263.8125 C-155.02510418 267.00426092 -151.85681241 270.1901081 -148.6875 273.375 C-147.800625 274.27025391 -146.91375 275.16550781 -146 276.08789062 C-141.43646439 280.66820394 -136.82417136 285.10306985 -131.91650391 289.31274414 C-126.5655779 293.95419266 -121.57930103 299.09877315 -117 304.5 C-109.34234419 313.43393178 -100.7312623 321.99463839 -91.6796875 329.51171875 C-90.1875 330.8125 -90.1875 330.8125 -88.125 333.3125 C-86.1916068 335.14187832 -86.1916068 335.14187832 -83.125 334.6875 C-81.80800628 334.41684663 -80.49579408 334.12248759 -79.1875 333.8125 C-62.34841826 330.12211683 -45.95343726 331.00616225 -30.8125 339.99609375 C-17.62058792 349.12442577 -9.67397781 360.5871275 -5.6015625 376.03515625 C-3.10431543 392.7855588 -5.41295298 409.19495366 -14.90234375 423.375 C-24.51651858 436.27254333 -37.87871623 443.54517511 -53.5078125 446.3125 C-69.65667567 448.50682536 -84.71184715 444.53000781 -97.81640625 434.73828125 C-109.4567248 425.28411808 -118.34496929 413.03573915 -120.1875 397.8125 C-121.48425889 382.19597622 -118.061456 369.87030347 -111.1875 355.8125 C-111.72117187 355.41160156 -112.25484375 355.01070312 -112.8046875 354.59765625 C-122.15489238 347.4636764 -130.55171648 339.53561349 -138.875 331.25 C-139.94427734 330.18773193 -139.94427734 330.18773193 -141.03515625 329.10400391 C-145.06583717 325.06114854 -148.92118773 320.92032848 -152.64868164 316.59643555 C-154.57852143 314.35919307 -156.56904568 312.18057934 -158.5625 310 C-162.53906088 305.59737903 -166.30335034 301.05205573 -170.03515625 296.44140625 C-172.99926863 292.82099313 -176.07489268 289.3054259 -179.1875 285.8125 C-183.68728286 286.76602542 -187.72657063 288.71902966 -191.921875 290.55859375 C-205.42825086 295.74465434 -222.80462612 296.20622398 -236.4140625 291.0625 C-237.32929688 290.65 -238.24453125 290.2375 -239.1875 289.8125 C-240.12335938 289.4 -241.05921875 288.9875 -242.0234375 288.5625 C-257.2904984 281.03588174 -268.31557952 267.39484059 -274.2578125 251.6171875 C-279.99899472 234.29715039 -278.21496236 216.93201547 -270.68359375 200.5390625 C-263.02428299 186.18016185 -250.29849811 175.88045203 -234.875 170.875 C-230.33835663 169.72236748 -225.85680863 169.07976682 -221.1875 168.8125 C-219.97707031 168.71582031 -219.97707031 168.71582031 -218.7421875 168.6171875 C-212.04473118 168.3173014 -206.15680916 169.59287275 -199.75756836 171.3894043 C-194.54028159 172.86230417 -194.54028159 172.86230417 -189.1875 172.8125 C-187.33503507 171.60148325 -187.33503507 171.60148325 -185.8125 169.8125 C-185.20664062 169.1628125 -184.60078125 168.513125 -183.9765625 167.84375 C-182.36409619 166.01300223 -180.77313053 164.166468 -179.1875 162.3125 C-171.5741783 153.49071453 -163.10611846 145.06941495 -154.20703125 137.546875 C-151.4743674 135.20006117 -148.83471963 132.75451829 -146.1875 130.3125 C-142.22387632 126.66294233 -138.22343958 123.06503767 -134.15625 119.53125 C-127.05169466 113.32886042 -120.13866534 106.92121481 -113.2421875 100.48999023 C-109.46825068 96.97842099 -105.64519224 93.53897923 -101.734375 90.1796875 C-100.36964326 88.9734852 -99.08357525 87.6795246 -97.8125 86.375 C-96.1875 84.8125 -96.1875 84.8125 -94.1875 84.8125 C-94.364021 84.28817383 -94.54054199 83.76384766 -94.72241211 83.22363281 C-95.52486519 80.83711992 -96.32495453 78.44982103 -97.125 76.0625 C-97.40279297 75.2375 -97.68058594 74.4125 -97.96679688 73.5625 C-98.36801758 72.36367188 -98.36801758 72.36367188 -98.77734375 71.140625 C-99.02347412 70.4074707 -99.26960449 69.67431641 -99.52319336 68.91894531 C-104.46007564 53.26461959 -101.22233645 35.52440375 -94.125 21.125 C-84.8213443 4.96288016 -70.26653791 -5.89152636 -52.375 -11 C-34.31302918 -15.07850954 -14.96204609 -10.72500649 0 0 Z " fill="#FAFAFA" transform="translate(592.1875,207.1875)"/>
</svg>
